<svg width="24" height="24" viewBox="0 0 24 24" fill="none" xmlns="http://www.w3.org/2000/svg">
<path d="M12.7 17.2496V10.7496C12.7 10.3354 12.3642 9.99961 11.95 9.99961C11.5358 9.99961 11.2 10.3354 11.2 10.7496V17.2496C11.2 17.6638 11.5358 17.9996 11.95 17.9996C12.3642 17.9996 12.7 17.6638 12.7 17.2496Z" fill="#97A1AF"/>
<path d="M9.7 17.2496V10.7496C9.7 10.3354 9.36421 9.99961 8.95 9.99961C8.53579 9.99961 8.2 10.3354 8.2 10.7496V17.2496C8.2 17.6638 8.53579 17.9996 8.95 17.9996C9.36421 17.9996 9.7 17.6638 9.7 17.2496Z" fill="#97A1AF"/>
<path d="M15.7 17.2496V10.7496C15.7 10.3354 15.3642 9.99961 14.95 9.99961C14.5358 9.99961 14.2 10.3354 14.2 10.7496V17.2496C14.2 17.6638 14.5358 17.9996 14.95 17.9996C15.3642 17.9996 15.7 17.6638 15.7 17.2496Z" fill="#97A1AF"/>
<path d="M16 5.99961C16 3.79961 14.2 2.09961 12 2.09961C9.8 2.09961 8 3.79961 8 5.99961H2.75C2.33579 5.99961 2 6.3354 2 6.74961C2 7.16382 2.33579 7.49961 2.75 7.49961H3.8L4.93146 19.6845C5.02696 20.713 5.88996 21.4996 6.92289 21.4996H17.2771C18.31 21.4996 19.173 20.713 19.2685 19.6845L20.4 7.49961H21.25C21.6642 7.49961 22 7.16382 22 6.74961C22 6.3354 21.6642 5.99961 21.25 5.99961H16ZM12 3.59961C13.4 3.59961 14.5 4.69961 14.5 5.99961H9.5C9.5 4.69961 10.6 3.59961 12 3.59961ZM17.7 19.9996H6.3L5.3 7.49961H8.3C8.3 7.49961 10.8 7.49961 15.7 7.49961C15.7 7.49961 16.7 7.49961 18.7 7.49961L17.7 19.9996Z" fill="#97A1AF"/>
</svg>
