<svg width="81" height="80" viewBox="0 0 81 80" fill="none" xmlns="http://www.w3.org/2000/svg">
<path d="M68.125 40C68.125 55.464 55.589 68 40.125 68C24.661 68 12.125 55.464 12.125 40C12.125 24.536 24.661 12 40.125 12C55.589 12 68.125 24.536 68.125 40Z" fill="url(#paint0_linear_13278_28737)"/>
<path d="M52.2631 31.3899C51.6154 30.8734 50.6716 30.9798 50.1551 31.6276L37.0714 48.0364C36.8854 48.2697 36.5378 48.2892 36.3269 48.0783L29.9899 41.7413C29.4041 41.1555 28.4544 41.1555 27.8686 41.7413C27.2828 42.3271 27.2828 43.2768 27.8686 43.8626L34.2056 50.1996C35.6822 51.6762 38.1151 51.5395 39.417 49.9067L52.5007 33.4979C53.0172 32.8501 52.9108 31.9064 52.2631 31.3899Z" fill="white"/>
<defs>
<linearGradient id="paint0_linear_13278_28737" x1="40.125" y1="68" x2="40.125" y2="12" gradientUnits="userSpaceOnUse">
<stop stop-color="#7DBA6E"/>
<stop offset="0.9531" stop-color="#C6E99A"/>
</linearGradient>
</defs>
</svg>
